<?xml version="1.0" encoding="utf-8"?>
<!-- Generator: Adobe Illustrator 17.1.0, SVG Export Plug-In . SVG Version: 6.00 Build 0)  -->
<!DOCTYPE svg PUBLIC "-//W3C//DTD SVG 1.1//EN" "http://www.w3.org/Graphics/SVG/1.1/DTD/svg11.dtd">
<svg version="1.1" id="Layer_1" xmlns="http://www.w3.org/2000/svg" xmlns:xlink="http://www.w3.org/1999/xlink" x="0px" y="0px"
	 viewBox="0 218 792 173" enable-background="new 0 218 792 173" xml:space="preserve">
<g>
	<g>
		<path fill="none" d="M446.2,285.2c-3.4-4.4-7.9-8.1-13-10.6c-5.2-2.7-10.8-3.9-17.5-3.9c-6.4,0-12.3,1.2-17.5,3.9
			c-5.2,2.7-9.3,6.1-13,10.6c-3.4,4.4-6.4,9.6-8.1,15.5c-2,5.9-2.7,12.1-2.7,18.4c0,6.4,1,12.5,2.7,18.4c2,5.9,4.7,11.1,8.1,15.5
			s7.9,8.1,13,10.6c5.2,2.7,10.8,3.9,17.5,3.9c6.4,0,12.3-1.2,17.5-3.9c5.2-2.7,9.6-6.1,13-10.6c3.4-4.4,6.1-9.6,8.1-15.5
			s2.7-12.1,2.7-18.4c0-6.4-1-12.5-2.7-18.4C452.6,294.8,449.9,289.6,446.2,285.2z"/>
		<path fill="none" d="M43.5,301.2c5.2-0.7,9.3-3,9.3-4.9c0-1.7-3.7-2.7-8.4-2.2c0,1,0,1.7,0,2.7c0,0.5-2.2,0.5-2.2,0
			c0-0.7,0.2-1.5,0.2-2.5c-4.7,1-8.4,3-8.4,4.7C34.2,301,38.4,301.9,43.5,301.2z"/>
		<path fill="none" d="M339.4,294.1c0-3.4-0.7-6.6-2-9.3c-1.2-2.7-3.2-5.2-5.4-7.1c-2.2-2-4.9-3.7-7.9-4.7s-6.1-1.7-9.3-1.7
			c-2.7,0-5.2,0-7.6,0.2s-4.9,0.7-7.4,1.5c-0.2,4.9-0.5,10.1-0.5,15.2s-0.2,10.6-0.2,16.7v10.6c4.7,1.7,9.6,2.7,14.5,2.7
			c8.1,0,14.5-2,18.9-5.7C337,308.6,339.4,302.4,339.4,294.1z"/>
		<path fill="none" d="M44.3,284c5.9,0,10.6-4.7,10.6-10.6s-4.7-10.6-10.6-10.6s-10.6,4.7-10.6,10.6S38.4,284,44.3,284z"/>
		<path fill="none" d="M660.4,323.8c-2-2.7-4.2-5.2-7.1-6.9c-3-1.7-6.1-2.7-10.1-2.7c-3,0-5.4,0.7-7.6,2.2c-2.2,1.5-3.9,3.4-5.4,5.7
			c-1.5,2.5-2.5,4.9-3.2,8.1c-0.7,3-1,5.9-1,8.9c0,3.4,0.5,6.6,1.2,10.1c1,3.4,2.2,6.4,4.2,9.1s4.2,5.2,7.1,6.9s6.1,2.7,10.3,2.7
			c3,0,5.4-0.7,7.6-2.2c2.2-1.5,3.9-3.4,5.4-5.7c1.5-2.5,2.5-4.9,3.2-7.9s1-5.9,1-9.1s-0.5-6.6-1.5-10.1
			C663.6,329.7,662.4,326.8,660.4,323.8z"/>
		<path fill="none" d="M48.5,352.9c1.2,0.7,2,1.5,1.7,2.5c0,1.2-1.7,2.5-4.2,3.4l0,0c-0.2,0.2-0.7,0.2-1,0.2s-0.2,0-0.5,0.2
			c-0.2,0-0.5,0.2-0.7,0.2c-4.7,1.2-8.1,0.5-7.9-1.2c0-0.5,0.7-1.2,1.5-2c0-0.5,0-1,0-1.7c-2.2,0.7-4.2,2-4.9,3.4
			c-2,3,3,4.9,10.3,3.7c7.1-1,13-5.4,11.8-8.6c-0.2-1.5-2.7-2.7-5.9-3C48.5,351.1,48.5,351.9,48.5,352.9z"/>
		<path fill="#EE8722" d="M53.9,283.7c12.8-8.9,9.1-25.8-2.7-33.5c-13.5-8.6-8.9-24.8,5.9-28.3c-20.9,3-43.5,27.1-35.4,49.4
			C26.3,284,41.8,291.9,53.9,283.7z M44.3,262.8c5.9,0,10.6,4.7,10.6,10.6S50.2,284,44.3,284s-10.6-4.7-10.6-10.6
			C33.7,267.8,38.4,262.8,44.3,262.8z"/>
		<path fill="#5F3165" d="M72.3,340.3c-4.9-0.7-8.1-0.7-8.1-0.7s2.5,0.2,6.4,1.2c4.2,1,10.8,3.2,13.3,7.9
			c3.4,5.7-0.2,17.7-23.9,24.8c-24.6,8.6-54.6,0.7-41.6-13.3c3.7-4.4,11.6-7.9,18.4-9.3c0,0.7,0,1.5,0,2c-4.9,1.2-10.1,3.9-11.6,6.9
			c-3.7,5.4,5.9,10.1,20.4,7.1c14.8-2.7,23.1-11.3,18.7-16.5c-2.2-3-8.4-4.2-15.5-4.4c1.5-18.9,6.4-44.3,7.6-50.9
			c0.7-3.7-5.4-4.2-11.8-3c0.2-1.5,0.2-2.7,0.2-2.7h-2.7c0,0,0.2,1.2,0.2,3c-6.6,1.5-12.8,4.2-12.5,6.1c4.7,23.4,6.4,38.9,7.1,48.2
			c-10.8,2-23.1,7.4-29.5,13.5c-9.8,8.6-9.8,18.7,0.7,23.9c13,7.1,35.7,6.6,55.1,0.5c36.9-12.1,35.4-29.5,28.5-36.4
			C86.3,343.3,77.7,341,72.3,340.3z M54.4,353.3c1.2,3.2-4.4,7.6-11.8,8.6c-7.4,1.2-12.3-1-10.3-3.7c0.7-1.5,2.7-2.7,4.9-3.4
			c0,0.7,0,1.2,0,1.7c-0.7,0.5-1.5,1.2-1.5,2c-0.2,1.7,3.2,2.5,7.9,1.2c0.2,0,0.5-0.2,0.7-0.2s0.2,0,0.5-0.2c0.2,0,0.7-0.2,1-0.2
			l0,0c2.7-1,4.2-2.5,4.2-3.4c0.2-1-0.5-1.7-1.7-2.5c0-0.7,0-1.7,0-2.5C51.7,350.6,54.1,351.6,54.4,353.3z M34.2,299.2
			c0-1.7,3.7-3.7,8.4-4.7c0,0.7,0,1.7-0.2,2.5c0,0.5,2.2,0.5,2.2,0c0-1,0-1.7,0-2.7c4.7-0.5,8.4,0.5,8.4,2.2c0,2-4.2,3.9-9.3,4.9
			C38.4,301.9,34.2,301,34.2,299.2z"/>
		<path fill="#5F3165" d="M182.8,341.8c-1,2.7-2.2,5.2-3.2,7.6c-1.2,3-3,5.7-4.7,8.4c-1.7,2.5-3.9,4.7-6.4,6.4
			c-2.5,1.7-5.9,3.2-9.6,3.9v0.2c-2.7-0.2-4.9-0.7-6.6-1.5c-2.2-0.7-3.9-2.2-4.9-3.9s-1.7-4.2-2-6.9c-0.2-3-0.5-6.4-0.5-10.8v-72.8
			c5.7,0,10.3,0.2,14.3,0.7c3.9,0.5,7.1,1.5,9.8,3.2s5.2,4.4,7.1,7.9s3.9,8.4,6.1,14.5l2-0.7l-2.2-30.7c-4.2,0.2-8.4,0.2-12.3,0.5
			c-4.2,0-8.1,0.2-12.3,0.2h-36.9c-4.4,0-8.9,0-13-0.2c-4.2,0-8.6-0.2-13-0.5L92.2,298l2,0.7c2-6.1,3.9-11.1,6.1-14.5
			c2-3.4,4.4-6.1,7.1-7.9c2.7-1.7,5.9-2.7,9.6-3.2s8.4-0.7,13.8-0.7v72.8c0,4.4-0.2,8.1-0.5,10.8c-0.2,3-1,5.2-2,6.9
			c-1,1.7-2.7,3.2-4.7,3.9c-2.2,0.7-4.9,1.5-8.9,1.7v3.2H204V368c-1.5-0.2-3.2-0.7-5.2-1.2c-2-0.7-3.9-1.5-5.9-2.5s-3.4-2.5-4.7-3.9
			c-1.2-1.7-2-3.7-2-5.9c0-1,0.2-1.7,0.5-2.5c0.2-0.7,0.7-1.7,1-2.7l2.5-6.6C187.7,343,185.2,342.8,182.8,341.8z"/>
		<path fill="#5F3165" d="M359.1,358.5c-3.2-2.5-5.9-5.4-8.9-8.6c-2.7-3.2-5.4-6.4-7.9-9.6s-4.7-6.4-6.6-9.6c-2-3.2-3.7-5.9-5.2-8.4
			c3.2-0.7,6.4-1.7,9.3-3c3-1.2,5.7-3.2,7.9-5.2c2.2-2.2,3.9-4.4,5.2-7.4c1.2-2.7,2-6.1,2-9.8c0-5.4-1.2-9.8-3.7-13.8
			c-2.5-3.9-5.4-7.1-9.3-9.6c-3.7-2.5-8.1-4.4-12.8-5.4c-4.7-1.2-9.3-1.7-13.8-1.7c-2,0-4.2,0-6.6,0.2c-2.5,0.2-4.9,0.2-7.4,0.5
			c-2.5,0.2-4.7,0.5-6.9,0.5c-2.2,0.2-3.9,0.2-5.4,0.2c-3.4,0-6.6,0-10.1-0.2c-3.4,0-6.6-0.2-10.1-0.5v2c3.7,0.2,6.6,1,8.9,1.7
			c2,0.7,3.7,2.2,4.7,3.9s1.7,4.2,2,6.9c0.2,3,0.5,6.4,0.5,10.8V345c0,4.4-0.2,8.1-0.5,10.8c-0.2,3-1,5.2-2,6.9
			c-0.5,0.7-1,1.2-1.5,1.7c-1-0.5-2-1.2-2.7-2c-3.2-2.7-5.7-6.6-7.4-11.6l-39.1-107.2c-3,1.2-5.7,2.2-7.9,3.2
			c-2.5,1-5.2,1.7-8.4,2.5c0.7,1,1.2,2.2,1.5,3.4c0.5,1.2,0.7,2.2,0.7,2.7c0,0.7-0.2,1.2-0.5,2s-0.7,1.5-1,2.5L198,304.6
			c2.2,0.2,4.2,0.5,6.1,1.2l16.5-44.3l31.2,88.3c0.2,1,0.5,1.7,1,2.7s0.7,2,0.7,3c0,3.4-1.7,6.4-5.4,8.4s-8.1,3.4-13.3,3.9v3.7h80.7
			v-3.2c-3.9-0.2-6.9-1-9.1-1.7s-3.9-2.2-4.9-3.9s-1.7-4.2-2-6.9c-0.2-3-0.5-6.4-0.5-10.8v-24.6c1,0.2,2.5,0.7,3.9,1
			c1.7,0.5,3.2,0.7,4.9,1c1.7,0.2,3.4,0.5,4.9,0.7c1.7,0.2,3,0.2,3.9,0.2c4.4,8.4,9.3,16.5,15,24.1s11.8,15,18.2,22.1h28.3v-2
			c-3.4-0.2-6.6-1.2-9.8-3C365.5,363.2,362.3,361.2,359.1,358.5z M313.6,317.9c-4.9,0-9.8-1-14.5-2.7v-10.6c0-5.9,0-11.6,0.2-16.7
			c0-5.2,0.2-10.1,0.5-15.2c2.5-0.7,4.9-1.2,7.4-1.5c2.5-0.2,5.2-0.2,7.6-0.2c3.2,0,6.4,0.5,9.3,1.7c3,1,5.7,2.7,7.9,4.7
			c2.2,2,4.2,4.4,5.4,7.1c1.2,2.7,2,5.9,2,9.3c0,8.4-2.2,14.5-6.6,18.4C328.1,316.2,321.7,317.9,313.6,317.9z"/>
		<path fill="#5F3165" d="M456.8,279.1c-5.2-4.7-11.3-8.1-18.4-10.6s-14.5-3.7-22.6-3.7c-7.9,0-15.5,1.2-22.6,3.7
			s-13.3,5.9-18.4,10.6s-9.3,10.3-12.5,17c-3.2,6.6-4.7,14.3-4.7,22.9c0,8.4,1.5,16,4.7,22.6s7.1,12.3,12.5,17
			c5.2,4.7,11.3,8.1,18.4,10.6s14.5,3.7,22.6,3.7c7.9,0,15.5-1.2,22.6-3.7s13.3-5.9,18.4-10.6c5.2-4.7,9.3-10.3,12.5-17
			c3.2-6.6,4.7-14.3,4.7-22.6s-1.5-16-4.7-22.9C466.1,289.4,461.9,283.7,456.8,279.1z M454.5,337.4c-2,5.9-4.7,11.1-8.1,15.5
			s-7.9,8.1-13,10.6c-5.2,2.7-10.8,3.9-17.5,3.9c-6.4,0-12.3-1.2-17.5-3.9c-5.2-2.7-9.3-6.1-13-10.6c-3.4-4.4-6.4-9.6-8.1-15.5
			c-2-5.9-2.7-12.1-2.7-18.4c0-6.4,1-12.5,2.7-18.4c2-5.9,4.7-11.1,8.1-15.5s7.9-8.1,13-10.6c5.2-2.7,10.8-3.9,17.5-3.9
			c6.4,0,12.3,1.2,17.5,3.9c5.2,2.7,9.6,6.1,13,10.6c3.4,4.4,6.1,9.6,8.1,15.5s2.7,12.1,2.7,18.4S456.3,331.5,454.5,337.4z"/>
		<path fill="#5F3165" d="M550.7,267.3c-4.2,0.2-8.4,0.2-12.5,0.5c-4.2,0-8.4,0.2-12.5,0.2h-37.1c-4.4,0-8.9,0-13-0.2
			c-2.7,0-12.8-0.2-20.7-0.2c3.4,3.2,11.3,10.6,12.1,11.8c1.5,1.5,2.2,2.7,2.5,3.2c1.7-2.7,3.7-4.7,5.9-6.1c2.7-1.7,5.9-2.7,9.6-3.2
			s8.4-0.7,14-0.7v73.1c0,4.4-0.2,8.1-0.5,11.1c-0.2,3-1,5.2-2,6.9c-1,1.7-2.7,3.2-4.9,3.9s-5.2,1.5-8.9,1.7v3.2h46.7v-3.2
			c-3.9-0.2-6.9-1-9.1-1.7c-2.2-0.7-3.9-2.2-4.9-3.9c-1-1.7-1.7-4.2-2-6.9c-0.2-3-0.5-6.6-0.5-11.1v-73.1c5.7,0,10.3,0.2,14.3,0.7
			s7.1,1.5,9.8,3.2s5.2,4.4,7.1,7.9c2,3.7,4.2,8.4,6.1,14.8l2-0.7L550.7,267.3z"/>
		<path fill="#5F3165" d="M541.9,353.6c-2.5,0-4.4,0.7-6.1,2.5s-2.7,3.7-2.7,6.4c0,2.5,1,4.7,2.7,6.4s3.7,2.5,6.1,2.5
			c2.5,0,4.4-0.7,6.1-2.5s2.7-3.7,2.7-6.4c0-2.5-1-4.7-2.7-6.4S544.3,353.6,541.9,353.6z"/>
		<path fill="#5F3165" d="M599.7,364.2c-3.4,1.5-7.1,2.2-11.1,2.2c-3.7,0-7.1-0.7-10.1-2.2s-5.7-3.4-7.6-5.9
			c-2.2-2.5-3.7-5.2-4.9-8.4c-1.2-3.2-1.7-6.4-1.7-9.8c0-3,0.2-6.1,1-9.1c0.7-3.2,1.7-5.9,3.2-8.4s3.2-4.4,5.7-6.1
			c2.2-1.5,5.2-2.5,8.4-2.5s6.1,0.7,8.6,2c2.5,1.5,4.7,3.2,6.4,5.2c1.7,2.2,3.4,4.4,4.7,7.1s2.5,5.4,3.4,7.9h2l-2-23.9
			c-3.7-0.7-7.4-1.2-11.1-1.7c-3.7-0.5-7.6-0.7-12.1-0.7c-4.2,0-8.1,0.7-11.8,2.5c-3.7,1.7-6.9,3.9-9.8,6.9c-2.7,3-4.9,6.1-6.6,10.1
			c-1.7,3.9-2.5,7.9-2.5,12.3s0.7,8.4,2.5,12.3c1.7,3.9,3.9,7.1,6.6,10.1c2.7,3,6.1,5.2,9.8,6.9c3.7,1.7,7.6,2.5,11.8,2.5
			c5.7,0,10.8-1,15.2-3c4.7-2,9.1-4.9,14-8.9l-2.2-2.5C606.5,361,603.1,362.7,599.7,364.2z"/>
		<path fill="#5F3165" d="M679.8,341.3c0-4.7-0.7-9.1-2.5-13c-1.7-3.9-3.9-7.1-6.9-9.8c-3-2.7-6.6-4.9-10.8-6.4s-8.9-2.2-13.8-2.2
			s-9.6,0.7-13.8,2.2s-7.6,3.7-10.8,6.4c-3,2.7-5.4,6.1-6.9,9.8c-1.7,3.9-2.5,8.1-2.5,13c0,4.7,0.7,9.1,2.5,13
			c1.7,3.9,3.9,7.1,6.9,9.8c3,2.7,6.6,4.9,10.8,6.4s8.9,2.2,13.8,2.2c5.2,0,9.6-0.7,13.8-2.2s7.6-3.7,10.8-6.4
			c3-2.7,5.4-6.1,6.9-9.8C679.1,350.4,679.8,346,679.8,341.3z M665.1,352.1c-0.7,3-1.7,5.7-3.2,7.9c-1.5,2.5-3.2,4.2-5.4,5.7
			s-4.7,2.2-7.6,2.2c-3.9,0-7.4-1-10.3-2.7c-3-1.7-5.2-3.9-7.1-6.9c-2-2.7-3.2-5.9-4.2-9.1c-1-3.4-1.2-6.6-1.2-10.1
			c0-3,0.2-5.9,1-8.9c0.7-3,1.7-5.7,3.2-8.1c1.5-2.5,3.2-4.2,5.4-5.7s4.7-2.2,7.6-2.2c3.9,0,7.1,1,10.1,2.7s5.2,3.9,7.1,6.9
			c2,2.7,3.2,5.9,4.2,9.3s1.5,6.6,1.5,10.1C666.1,346.2,665.8,349.2,665.1,352.1z"/>
		<path fill="#5F3165" d="M783.4,366.4c-2-1.2-3-3.4-3-6.9v-28c0-7.1-2-12.8-5.7-16.2c-3.7-3.7-9.1-5.4-15.5-5.4
			c-1.7,0-3.7,0.2-5.4,0.7c-2,0.5-3.7,1.2-5.4,2.2s-3.4,1.7-5.2,3c-1.7,1-3.2,2-4.7,3c-2.2-3-4.9-4.9-7.6-6.4s-5.9-2.2-9.6-2.2
			c-4.4,0-8.4,1-11.6,2.7c-3.2,1.7-6.6,3.7-10.1,6.1v-8l-23.1,3.2v2c2,0,3.7,0.2,4.9,0.7c1.5,0.2,2.5,1,3.2,1.7s1.5,2,1.7,3.4
			c0.5,1.5,0.5,3.4,0.5,5.9v32.2c0,3.4-1,5.7-3,6.9c-2,1.2-4.9,2-8.6,2.7v3.2h34.7v-3.2c-3.4-0.7-6.1-1.5-8.1-2.7s-3-3.4-3-6.9
			v-35.7c1.5-1.5,3-2.7,4.2-3.7s2.5-1.7,3.4-2.5c1.2-0.7,2.5-1,3.4-1.2c1.2-0.2,2.7-0.5,4.2-0.5c5.4,0,8.9,1.5,10.3,4.4
			c1.5,3,2.5,6.9,2.5,12.1v26.6c0,3.4-1,5.7-2.7,6.9c-1.7,1.2-4.2,2-7.4,2.7v3.2h33.2v-3.2c-3.4-0.7-6.1-1.5-8.1-2.7s-3-3.4-3-6.9
			v-36.9c3.9-3.4,9.1-5.2,15.5-5.2c3.4,0,6.4,1.2,8.9,3.9c2.5,2.5,3.9,6.4,3.9,11.6v26.6c0,3.4-1,5.7-2.7,6.9
			c-1.7,1.2-4.2,2-7.4,2.7v3.2h35v-3.2C788.1,368.4,785.4,367.6,783.4,366.4z"/>
	</g>
	<path fill="#EE8722" d="M205.6,333.2c7.9-12.3,22.6-7.9,25.6,5.7c-2.5-19.2-24.1-39.8-44.3-32.5c-11.3,4.2-18.7,18.2-11.6,29.3
		C183.2,347.2,198.7,344,205.6,333.2 M175.4,326.8c0-5.4,4.4-9.6,9.6-9.6c5.2,0,9.6,4.4,9.6,9.6c0,5.4-4.4,9.6-9.6,9.6
		C179.6,336.4,175.4,331.9,175.4,326.8"/>
</g>
</svg>
